<svg width="10" height="19" viewBox="0 0 10 19" fill="none" xmlns="http://www.w3.org/2000/svg">
<path d="M0.17134 8.89208L8.17867 0.672601C8.29326 0.555094 8.42512 0.496094 8.57396 0.496094C8.72285 0.496094 8.85465 0.555094 8.96918 0.672601L9.82818 1.55458C9.94289 1.67215 10 1.8072 10 1.96029C10 2.11339 9.94289 2.24844 9.82818 2.36601L3.07537 9.29804L9.82818 16.2302C9.94289 16.3478 10 16.4831 10 16.6357C10 16.7888 9.94289 16.9241 9.82818 17.0416L8.96912 17.9233C8.85459 18.041 8.72279 18.0996 8.5739 18.0996C8.42506 18.0996 8.29326 18.0409 8.17867 17.9233L0.171763 9.70375C0.0572948 9.58625 0 9.45089 0 9.29804C0 9.1452 0.0568714 9.0099 0.17134 8.89208Z" fill="#B1B2B5"/>
</svg>
