<svg width="10" height="19" viewBox="0 0 10 19" fill="none" xmlns="http://www.w3.org/2000/svg">
<path d="M9.82866 8.89208L1.82133 0.672601C1.70674 0.555094 1.57488 0.496094 1.42604 0.496094C1.27715 0.496094 1.14535 0.555094 1.03082 0.672601L0.171823 1.55458C0.0571139 1.67215 0 1.8072 0 1.96029C0 2.11339 0.0571139 2.24844 0.171823 2.36601L6.92463 9.29804L0.171823 16.2302C0.0571139 16.3478 0 16.4831 0 16.6357C0 16.7888 0.0571139 16.9241 0.171823 17.0416L1.03088 17.9233C1.14541 18.041 1.27721 18.0996 1.4261 18.0996C1.57494 18.0996 1.70674 18.0409 1.82133 17.9233L9.82824 9.70375C9.94271 9.58625 10 9.45089 10 9.29804C10 9.1452 9.94313 9.0099 9.82866 8.89208Z" fill="#B1B2B5"/>
</svg>
