<svg width="16" height="21" viewBox="0 0 16 21" fill="none" xmlns="http://www.w3.org/2000/svg">
<path d="M8 0.187012C3.86426 0.187012 0.5 3.55166 0.5 7.68701C0.5 13.2201 7.41977 19.7964 7.71438 20.0739C7.79492 20.1492 7.89746 20.187 8 20.187C8.10254 20.187 8.20508 20.1492 8.28566 20.0739C8.58023 19.7964 15.5 13.2201 15.5 7.68701C15.5 3.55166 12.1357 0.187012 8 0.187012ZM8 11.8537C5.70262 11.8537 3.83332 9.98439 3.83332 7.68701C3.83332 5.38963 5.70266 3.52033 8 3.52033C10.2973 3.52033 12.1667 5.38967 12.1667 7.68701C12.1667 9.98436 10.2974 11.8537 8 11.8537Z" fill="#191B1D"/>
</svg>
