<svg width="19" height="20" viewBox="0 0 19 20" fill="none" xmlns="http://www.w3.org/2000/svg">
<path d="M9.49984 0.187012C4.25328 0.187012 0 4.44042 0 9.68685C0 14.9333 4.25328 19.187 9.49984 19.187C14.7464 19.187 19 14.9333 19 9.68685C19 4.44042 14.7464 0.187012 9.49984 0.187012ZM13.6069 11.4937H9.57933C9.56571 11.4937 9.55304 11.4904 9.53955 11.4899C9.52606 11.4906 9.51346 11.4937 9.49978 11.4937C9.13694 11.4937 8.84275 11.1995 8.84275 10.8367V4.12951C8.84275 3.76667 9.13694 3.47248 9.49978 3.47248C9.86262 3.47248 10.1568 3.76667 10.1568 4.12951V10.1797H13.6066C13.9695 10.1797 14.2637 10.4738 14.2637 10.8367C14.2637 11.1995 13.9697 11.4937 13.6069 11.4937Z" fill="black"/>
</svg>
