<svg width="19" height="16" viewBox="0 0 19 16" fill="none" xmlns="http://www.w3.org/2000/svg">
<path d="M19 12.5292C19 12.9677 18.8828 13.3741 18.6952 13.7318L12.6961 6.66637L18.6301 1.20137C18.8609 1.58697 19 2.03993 19 2.52941V12.5292ZM9.50002 7.94924L17.757 0.344294C17.4182 0.149039 17.0366 0.0292969 16.6251 0.0292969H2.37499C1.96288 0.0292969 1.58121 0.149039 1.24374 0.344294L9.50002 7.94924ZM11.802 7.48915L9.89074 9.25061C9.77894 9.35312 9.63974 9.40432 9.50002 9.40432C9.36022 9.40432 9.22102 9.35312 9.10922 9.25061L7.19752 7.48907L1.12255 14.6448C1.48668 14.8852 1.91343 15.0293 2.37495 15.0293H16.6251C17.0865 15.0293 17.5134 14.8852 17.8775 14.6448L11.802 7.48915ZM0.369967 1.20132C0.139168 1.58693 0 2.03989 0 2.52941V12.5293C0 12.9677 0.116613 13.3742 0.305003 13.7318L6.30338 6.66518L0.369967 1.20132Z" fill="black"/>
</svg>
