<svg width="19" height="20" viewBox="0 0 19 20" fill="none" xmlns="http://www.w3.org/2000/svg">
<path d="M15.7918 11.4195C15.3823 10.9931 14.8884 10.7652 14.365 10.7652C13.8458 10.7652 13.3477 10.9889 12.9214 11.4152L11.5875 12.7449C11.4778 12.6858 11.368 12.6309 11.2625 12.5761C11.1105 12.5001 10.967 12.4283 10.8446 12.3523C9.59513 11.5588 8.45964 10.5246 7.37059 9.18648C6.84295 8.51954 6.48837 7.95813 6.23088 7.38828C6.57701 7.07169 6.89782 6.74244 7.21019 6.42586C7.32838 6.30766 7.44657 6.18525 7.56476 6.06706C8.4512 5.18062 8.4512 4.03247 7.56476 3.14603L6.41239 1.99366C6.28153 1.8628 6.14646 1.72773 6.01982 1.59265C5.76656 1.33094 5.50062 1.06079 5.22625 0.807519C4.8168 0.40229 4.32715 0.187012 3.81217 0.187012C3.29719 0.187012 2.7991 0.40229 2.37698 0.807519L2.36854 0.815962L0.933356 2.26381C0.39305 2.80412 0.0849075 3.46262 0.0173694 4.22664C-0.0839379 5.45922 0.27908 6.60737 0.557675 7.35873C1.2415 9.20337 2.26301 10.9129 3.78684 12.7449C5.6357 14.9526 7.86024 16.6959 10.4014 17.9242C11.3722 18.3843 12.6681 18.9289 14.116 19.0217C14.2046 19.026 14.2975 19.0302 14.3819 19.0302C15.357 19.0302 16.1759 18.6798 16.8175 17.9833C16.8217 17.9749 16.8302 17.9707 16.8344 17.9622C17.0539 17.6963 17.3071 17.4557 17.5731 17.1982C17.7546 17.0251 17.9403 16.8436 18.1218 16.6537C18.5397 16.2189 18.7592 15.7124 18.7592 15.1932C18.7592 14.6697 18.5355 14.1674 18.1092 13.7453L15.7918 11.4195Z" fill="#191B1D"/>
</svg>
