<svg width="18" height="24" viewBox="0 0 18 24" fill="none" xmlns="http://www.w3.org/2000/svg">
<path d="M9.30272 0.00500223C4.42882 -0.159251 0.42627 3.74278 0.42627 8.57959C0.42627 14.0688 5.69406 18.0525 8.64664 23.7816C8.79655 24.0725 9.21529 24.0729 9.36572 23.7821C12.0368 18.627 16.6019 15.1703 17.448 10.204C18.3239 5.06484 14.5129 0.180657 9.30272 0.00500223ZM9.00576 13.0736C6.52383 13.0736 4.51176 11.0615 4.51176 8.57959C4.51176 6.0977 6.52388 4.08559 9.00576 4.08559C11.4877 4.08559 13.4998 6.0977 13.4998 8.57959C13.4998 11.0615 11.4877 13.0736 9.00576 13.0736Z" fill="#ECAE11"/>
</svg>
