<svg width="20" height="20" viewBox="0 0 20 20" fill="none" xmlns="http://www.w3.org/2000/svg">
<path d="M18.0386 19.2245L18.0386 19.2245C18.0857 19.2698 18.1005 19.3392 18.076 19.3998L18.076 19.3999C18.0516 19.4605 17.9928 19.5002 17.9273 19.5002H1.21894C1.15356 19.5002 1.09472 19.4605 1.07026 19.3999C1.04578 19.3392 1.06063 19.2698 1.10767 19.2245L1.1077 19.2245L2.20629 18.1662C3.38148 17.0341 4.84693 16.2614 6.44479 15.9311L6.4448 15.9311L7.36531 15.7409L7.7641 15.6584V15.2512V14.7195V14.456L7.54685 14.3071C6.21046 13.3907 5.20175 11.6219 4.97285 9.53516H14.1336C13.8812 11.556 12.8683 13.3283 11.5895 14.2514L11.3821 14.4011V14.6568V15.2512V15.6584L11.7809 15.7408L12.7014 15.9311L12.7014 15.9311C14.2993 16.2614 15.7648 17.0342 16.94 18.1662L18.0386 19.2245Z" stroke="#ECAE11"/>
<path d="M14.7138 5.33306L14.7252 5.82145H15.2137H18.2689C18.6587 5.82145 18.9406 6.1203 18.9406 6.44781C18.9406 6.77533 18.6586 7.07418 18.2689 7.07418H14.0436H14.0416H14.0394H14.037H14.0345H14.0317H14.0288H14.0257H14.0224H14.019H14.0153H14.0115H14.0075H14.0034H13.9991H13.9946H13.9899H13.985H13.98H13.9748H13.9695H13.9639H13.9582H13.9524H13.9463H13.9401H13.9338H13.9272H13.9206H13.9137H13.9067H13.8995H13.8922H13.8847H13.877H13.8692H13.8612H13.8531H13.8448H13.8363H13.8277H13.819H13.8101H13.801H13.7918H13.7824H13.7729H13.7633H13.7534H13.7435H13.7334H13.7231H13.7127H13.7021H13.6914H13.6806H13.6696H13.6585H13.6472H13.6358H13.6242H13.6125H13.6007H13.5887H13.5766H13.5644H13.552H13.5395H13.5268H13.514H13.5011H13.488H13.4748H13.4615H13.4481H13.4345H13.4208H13.4069H13.393H13.3789H13.3646H13.3503H13.3358H13.3212H13.3065H13.2916H13.2767H13.2616H13.2464H13.2311H13.2156H13.2H13.1843H13.1685H13.1526H13.1366H13.1204H13.1042H13.0878H13.0713H13.0547H13.038H13.0211H13.0042H12.9872H12.97H12.9527H12.9354H12.9179H12.9003H12.8826H12.8648H12.8469H12.8289H12.8108H12.7926H12.7743H12.7559H12.7374H12.7188H12.7001H12.6813H12.6624H12.6434H12.6243H12.6052H12.5859H12.5665H12.5471H12.5275H12.5079H12.4881H12.4683H12.4484H12.4284H12.4083H12.3881H12.3679H12.3476H12.3271H12.3066H12.286H12.2653H12.2446H12.2237H12.2028H12.1818H12.1608H12.1396H12.1184H12.0971H12.0757H12.0542H12.0327H12.0111H11.9894H11.9676H11.9458H11.9239H11.902H11.8799H11.8578H11.8357H11.8134H11.7911H11.7687H11.7463H11.7238H11.7013H11.6786H11.6559H11.6332H11.6104H11.5875H11.5646H11.5416H11.5185H11.4954H11.4723H11.4491H11.4258H11.4025H11.3791H11.3557H11.3322H11.3086H11.2851H11.2614H11.2377H11.214H11.1902H11.1664H11.1425H11.1186H11.0946H11.0706H11.0466H11.0225H10.9983H10.9741H10.9499H10.9257H10.9013H10.877H10.8526H10.8282H10.8038H10.7793H10.7548H10.7302H10.7056H10.681H10.6563H10.6316H10.6069H10.5822H10.5574H10.5326H10.5078H10.4829H10.458H10.4331H10.4082H10.3832H10.3582H10.3332H10.3082H10.2831H10.2581H10.233H10.2079H10.1827H10.1576H10.1324H10.1072H10.082H10.0568H10.0316H10.0064H9.9811H9.95583H9.93056H9.90527H9.87997H9.85467H9.82935H9.80403H9.7787H9.75336H9.72802H9.70267H9.67732H9.65196H9.62661H9.60125H9.57588H9.55052H9.52516H9.4998H9.47444H9.44908H9.42373H9.39838H9.37303H9.34769H9.32235H9.29702H9.2717H9.24638H9.22108H9.19578H9.1705H9.14522H9.11996H9.0947H9.06946H9.04424H9.01903H8.99383H8.96865H8.94349H8.91834H8.89321H8.8681H8.84301H8.81794H8.79289H8.76786H8.74285H8.71787H8.69291H8.66798H8.64307H8.61818H8.59332H8.56849H8.54369H8.51892H8.49417H8.46946H8.44477H8.42012H8.3955H8.37091H8.34636H8.32184H8.29735H8.27291H8.24849H8.22412H8.19978H8.17549H8.15123H8.12701H8.10283H8.07869H8.0546H8.03055H8.00654H7.98258H7.95866H7.93479H7.91096H7.88719H7.86346H7.83977H7.81614H7.79256H7.76903H7.74555H7.72212H7.69875H7.67543H7.65216H7.62895H7.60579H7.58269H7.55965H7.53667H7.51374H7.49088H7.46807H7.44533H7.42265H7.40002H7.37747H7.35497H7.33254H7.31018H7.28788H7.26565H7.24348H7.22139H7.19936H7.1774H7.15551H7.13369H7.11195H7.09028H7.06867H7.04715H7.0257H7.00432H6.98302H6.96179H6.94064H6.91957H6.89858H6.87767H6.85684H6.83609H6.81542H6.79484H6.77433H6.75391H6.73358H6.71333H6.69316H6.67308H6.65309H6.63319H6.61338H6.59366H6.57402H6.55448H6.53503H6.51567H6.4964H6.47723H6.45815H6.43917H6.42028H6.40149H6.3828H6.36421H6.34571H6.32731H6.30902H6.29082H6.27273H6.25474H6.23685H6.21906H6.20138H6.18381H6.16634H6.14898H6.13172H6.11458H6.09754H6.08061H6.06379H6.04708H6.03049H6.014H5.99763H5.98138H5.96524H5.94921H5.9333H5.9175H5.90183H5.88627H5.87083H5.85551H5.84031H5.82523H5.81027H5.79544H5.78072H5.76613H5.75167H5.73733H5.72312H5.70903H5.69508H5.68124H5.66754H5.65397H5.64053H5.62722H5.61404H5.60099H5.58808H5.5753H5.56265H5.55014H5.53777H5.52553H5.51343H5.50147H5.48965H5.47796H5.46642H5.45502H5.44376H5.43264H5.42166H5.41083H5.40014H5.3896H5.37921H5.36896H5.35886H5.3489H5.3391H5.32944H5.31994H5.31059H5.30138H5.29234H5.28344H5.2747H5.26611H5.25768H5.2494H5.24128H5.23332H5.22551H5.21787H5.21038H5.20306H5.19589H5.18889H5.18205H5.17537H5.16886H5.16251H5.15633H5.15031H5.14446H5.13877H5.13326H5.12791H5.12274H5.11773H5.1129H5.10823H5.10374H5.09942H5.09528H5.09131H5.08752H5.0839H5.08046H5.07719H5.07411H5.0712H5.06847H5.06593H5.06356H5.06138H5.05938C4.66967 7.07418 4.3877 6.77533 4.3877 6.44781V5.4448C4.3877 2.73708 6.68589 0.5 9.55152 0.5C12.3774 0.5 14.6521 2.67618 14.7138 5.33306Z" stroke="#ECAE11"/>
</svg>
