<svg width="20" height="22" viewBox="0 0 20 22" fill="none" xmlns="http://www.w3.org/2000/svg">
<path d="M19.3333 19.0504V7.05406C19.5943 7.05132 19.8305 6.88967 19.9396 6.63889C20.0476 6.39263 20.0084 6.10228 19.8396 5.89801L17.3666 2.85229C17.1666 2.60813 16.8756 2.46861 16.5703 2.47054H12.1939L10.79 0.409057C10.5992 0.14907 10.305 -0.00207769 9.99405 2.15821e-05C9.68308 0.00212085 9.39072 0.157144 9.20289 0.419553L7.80595 2.47054H3.42957C3.12425 2.46861 2.83341 2.60813 2.63337 2.85229L0.160228 5.89769C-0.00853443 6.10196 -0.0475969 6.39231 0.0602827 6.63841C0.169383 6.88951 0.405589 7.05132 0.666667 7.05406V19.0504C0.298472 19.0504 1.04786e-05 19.3663 1.04786e-05 19.756V20.4615C1.04786e-05 20.8511 0.298472 21.167 0.666667 21.167H19.3333C19.7015 21.167 20 20.8511 20 20.4615V19.756C20 19.3663 19.7015 19.0504 19.3333 19.0504ZM12.3332 19.0504V14.8173C12.3322 13.8436 11.5866 13.0546 10.6667 13.0535H9.33335C8.41325 13.0546 7.6677 13.8436 7.66663 14.8173V19.0504H5.66666V7.05649H14.3333V19.0504H12.3332ZM8.33329 19.0504V17.6394H9.6666V19.0504H8.33329ZM10.6667 13.759C11.2189 13.759 11.6666 14.2328 11.6666 14.8173H10.3333V13.759H10.6667ZM8.33329 15.5229H9.6666V16.9339H8.33329V15.5229ZM10.3333 15.5229H11.6666V16.9339H10.3333V15.5229ZM9.6666 14.8173H8.33329C8.33329 14.2328 8.78098 13.759 9.33335 13.759H9.6666V14.8173ZM10.3333 17.6394H11.6666V19.0504H10.3333V17.6394ZM15 7.05649H18.6667V19.0504H15V7.05649ZM16.5703 3.17606C16.6809 3.17461 16.7867 3.22418 16.8599 3.31187L19.3156 6.35097H14.8373L12.6746 3.17606H16.5703ZM9.73694 0.842153C9.80195 0.763027 9.89564 0.716681 9.99482 0.714743C10.094 0.712806 10.1892 0.755437 10.257 0.83198L14.0154 6.35097H5.86961L8.24235 3.03492L8.24464 3.0304L8.24692 3.02798L9.73694 0.842153ZM3.14057 3.31154C3.21381 3.22402 3.31925 3.17461 3.42957 3.17606H7.30592L5.03327 6.35097H0.999918C0.99 6.35097 0.981303 6.3563 0.971232 6.35694H0.665904L3.14057 3.31154ZM1.33332 7.05649H5.00001V19.0504H1.33332V7.05649ZM0.666667 20.4615V19.756H19.3333V20.4615H0.666667Z" fill="#ECAE11"/>
</svg>
