<svg width="18" height="18" viewBox="0 0 18 18" fill="none" xmlns="http://www.w3.org/2000/svg">
<g clip-path="url(#clip0_329_495)">
<path d="M0.0568928 1.65161L1.25735 3.75229C1.29784 3.82327 1.36562 3.87463 1.44487 3.8945L2.56484 4.17449L6.40608 8.01573L6.83051 7.59143L2.92915 3.69019C2.89075 3.65167 2.84261 3.62439 2.78989 3.61118L1.71375 3.34119L0.691688 1.55161L1.56796 0.675345L3.35827 1.6984L3.62839 2.77454C3.64147 2.82738 3.66888 2.87565 3.70727 2.91404L7.60863 6.8154L8.03294 6.39097L4.1917 2.54973L3.91171 1.43038C3.89183 1.351 3.84048 1.2831 3.76949 1.24249L1.66869 0.0421548C1.55154 -0.0245098 1.40413 -0.00475729 1.30858 0.0904249L0.108249 1.29088C0.011709 1.38582 -0.00927798 1.53347 0.0568928 1.65161Z" fill="#ECAE11"/>
<path d="M12.5334 5.91454L5.93127 12.5168L5.50684 12.0924L12.1091 5.49023L12.5334 5.91454Z" fill="#ECAE11"/>
<path d="M4.77577 12.7505C4.72146 12.6602 4.62393 12.605 4.5185 12.605H2.71794C2.61264 12.605 2.51498 12.6602 2.46079 12.7505L1.56045 14.251C1.50329 14.346 1.50329 14.4649 1.56045 14.5601L2.46079 16.0606C2.51498 16.1508 2.61264 16.2061 2.71794 16.2061H4.5185C4.62393 16.2061 4.72146 16.1508 4.77577 16.0606L5.67599 14.5601C5.73315 14.4649 5.73315 14.346 5.67599 14.251L4.77577 12.7505ZM4.34875 15.6059H2.88781L2.16759 14.4055L2.88781 13.2051H4.34875L5.06897 14.4055L4.34875 15.6059Z" fill="#ECAE11"/>
<path d="M14.4223 7.20298C16.4044 7.20964 18.0166 5.60821 18.0233 3.62618C18.0243 3.32446 17.9873 3.02397 17.9131 2.73151C17.8731 2.57065 17.7102 2.47276 17.5494 2.51275C17.4965 2.52596 17.4484 2.55325 17.4099 2.59164L15.5418 4.4585L14.0596 3.96456L13.5653 2.48275L15.4334 0.614295C15.5506 0.497015 15.5504 0.307021 15.4331 0.189864C15.3945 0.151223 15.3459 0.123816 15.2927 0.11073C13.3705 -0.376045 11.4178 0.787499 10.9311 2.70954C10.8571 3.00113 10.8202 3.30088 10.8212 3.60173C10.8219 3.83802 10.8463 4.07357 10.8942 4.30492L4.32189 10.8771C4.09054 10.8293 3.85499 10.805 3.61882 10.8041C1.62987 10.8041 0.0175781 12.4164 0.0175781 14.4053C0.0175781 16.3942 1.62987 18.0065 3.61882 18.0065C5.60765 18.0065 7.21995 16.3942 7.21995 14.4053C7.21921 14.1691 7.19476 13.9335 7.14699 13.7022L8.72039 12.1288L9.40852 12.8169C9.5258 12.934 9.71567 12.934 9.83295 12.8169L9.98295 12.6668C10.1145 12.536 10.3273 12.536 10.4589 12.6668C10.5903 12.7979 10.5906 13.0107 10.4595 13.1422C10.4594 13.1423 10.4591 13.1425 10.4589 13.1428L10.3089 13.2928C10.1917 13.4099 10.1917 13.5999 10.3089 13.7171L13.8888 17.297C14.8303 18.2472 16.3639 18.2541 17.3141 17.3125C18.2642 16.371 18.2711 14.8373 17.3295 13.8872C17.3244 13.882 17.3193 13.8768 17.3141 13.8717L13.7342 10.2919C13.617 10.1747 13.427 10.1747 13.3099 10.2919L13.1599 10.4419C13.0282 10.5727 12.8156 10.5727 12.6839 10.4419C12.5525 10.3108 12.5521 10.0979 12.6832 9.9666C12.6835 9.96635 12.6837 9.96623 12.6839 9.96598L12.834 9.81586C12.9511 9.6987 12.9511 9.50871 12.834 9.39155L12.1458 8.70343L13.7193 7.13002C13.9506 7.17779 14.1861 7.20224 14.4223 7.20298V7.20298ZM15.6014 17.4064C15.3834 17.406 15.1672 17.3666 14.9632 17.2899L17.3069 14.9461C17.6606 15.8869 17.1847 16.9363 16.2439 17.2899C16.0386 17.3671 15.8209 17.4066 15.6014 17.4064ZM12.2016 9.60673C11.8693 10.0031 11.9214 10.594 12.3178 10.9262C12.6662 11.2182 13.174 11.2179 13.522 10.9253L16.8898 14.2961C16.9263 14.3328 16.9605 14.3714 16.9936 14.4107L14.4277 16.9765C14.3884 16.9435 14.3497 16.9093 14.3131 16.8727L10.9427 13.502C11.275 13.1056 11.2229 12.5148 10.8265 12.1826C10.4781 11.8905 9.97023 11.8909 9.62222 12.1833L9.14211 11.7032L11.7214 9.12773L12.2016 9.60673ZM13.4135 6.58843L6.60564 13.3949C6.53096 13.4694 6.50096 13.5777 6.52639 13.6801C6.9381 15.2969 5.9611 16.9414 4.34411 17.353C2.72725 17.7647 1.08273 16.7877 0.671015 15.1708C0.259422 13.5539 1.23643 11.9094 2.85342 11.4977C3.34254 11.3732 3.85499 11.3732 4.34411 11.4977C4.44645 11.5227 4.55447 11.4927 4.62929 11.4185L11.4355 4.61195C11.5101 4.53738 11.5401 4.42911 11.5144 4.3269C11.1055 2.72892 12.0694 1.10206 13.6674 0.693058C13.9694 0.6159 14.2817 0.586271 14.5928 0.605653L13.0098 2.18931C12.9294 2.26955 12.9013 2.38844 12.9372 2.49621L13.5373 4.2969C13.5673 4.3864 13.6376 4.45677 13.7273 4.48652L15.528 5.08675C15.6356 5.12267 15.7545 5.09465 15.8349 5.0144L17.4179 3.43137C17.4215 3.48865 17.4233 3.54531 17.4233 3.60173C17.4317 5.25069 16.1019 6.59423 14.4529 6.60275C14.198 6.60398 13.9439 6.57263 13.697 6.50942C13.5947 6.48386 13.4864 6.51374 13.4119 6.58831H13.4135V6.58843Z" fill="#ECAE11"/>
<path d="M15.5347 15.0932L15.1103 15.5176L12.1094 12.5167L12.5337 12.0923L15.5347 15.0932Z" fill="#ECAE11"/>
</g>
<defs>
<clipPath id="clip0_329_495">
<rect width="18" height="18" fill="white"/>
</clipPath>
</defs>
</svg>
