<svg width="42" height="42" viewBox="0 0 42 42" fill="none" xmlns="http://www.w3.org/2000/svg">
<path d="M40.5978 37.8003V13.9968C41.1457 13.9914 41.6418 13.6706 41.8709 13.173C42.0977 12.6844 42.0154 12.1083 41.661 11.703L36.468 5.65957C36.0479 5.1751 35.4369 4.89826 34.7957 4.9021H25.6058L22.6577 0.811659C22.2572 0.295788 21.6394 -0.00412259 20.9864 4.28237e-05C20.3334 0.00420824 19.7195 0.311809 19.325 0.832487L16.3916 4.9021H7.20172C6.56056 4.89826 5.94985 5.1751 5.52978 5.65957L0.33646 11.7023C-0.0179213 12.1076 -0.0999481 12.6838 0.126587 13.1721C0.355685 13.6703 0.851691 13.9914 1.39992 13.9968V37.8003C0.626758 37.8003 2.20038e-05 38.427 2.20038e-05 39.2002V40.6001C2.20038e-05 41.3733 0.626758 42 1.39992 42H40.5978C41.371 42 41.9977 41.3733 41.9977 40.6001V39.2002C41.9977 38.427 41.371 37.8003 40.5978 37.8003ZM25.8984 37.8003V29.4009C25.8961 27.4688 24.3306 25.9032 22.3988 25.901H19.599C17.6669 25.9032 16.1013 27.4688 16.0991 29.4009V37.8003H11.8994V14.0016H30.0984V37.8003H25.8984ZM17.499 37.8003V35.0005H20.2988V37.8003H17.499ZM22.3988 27.3009C23.5584 27.3009 24.4985 28.241 24.4985 29.4009H21.6987V27.3009H22.3988ZM17.499 30.8008H20.2988V33.6006H17.499V30.8008ZM21.6987 30.8008H24.4985V33.6006H21.6987V30.8008ZM20.2988 29.4009H17.499C17.499 28.241 18.4391 27.3009 19.599 27.3009H20.2988V29.4009ZM21.6987 35.0005H24.4985V37.8003H21.6987V35.0005ZM31.4983 14.0016H39.1979V37.8003H31.4983V14.0016ZM34.7957 6.30201C35.028 6.29912 35.2501 6.39749 35.4039 6.57148L40.5607 12.6017H31.1567L26.6152 6.30201H34.7957ZM20.4465 1.67102C20.583 1.51401 20.7797 1.42205 20.988 1.41821C21.1963 1.41436 21.3962 1.49895 21.5385 1.65083L29.4307 12.6017H12.3255L17.308 6.02196L17.3128 6.01299L17.3176 6.00818L20.4465 1.67102ZM6.59485 6.57084C6.74865 6.39717 6.97006 6.29912 7.20172 6.30201H15.3416L10.5693 12.6017H2.09972C2.07889 12.6017 2.06062 12.6123 2.03948 12.6136H1.39832L6.59485 6.57084ZM2.79983 14.0016H10.4995V37.8003H2.79983V14.0016ZM1.39992 40.6001V39.2002H40.5978V40.6001H1.39992Z" fill="#ECAE11"/>
<path d="M16.4485 15.4014C14.7099 15.4033 13.3008 16.8125 13.2988 18.5514V23.8011C13.2988 24.1875 13.6122 24.5009 13.9986 24.5009H18.8984C19.2852 24.5009 19.5985 24.1875 19.5985 23.8011V18.5514C19.5966 16.8125 18.1874 15.4033 16.4485 15.4014ZM16.4485 16.8013C17.4149 16.8013 18.1986 17.5847 18.1986 18.5514V20.3012H14.6987V18.5514C14.6987 17.5847 15.4822 16.8013 16.4485 16.8013ZM14.6987 23.101V21.7011H18.1986V23.101H14.6987Z" fill="#ECAE11"/>
<path d="M7 26.6011H6.29989C5.1403 26.6011 4.2002 27.5412 4.2002 28.7008V35.0005C4.2002 35.3872 4.51356 35.7006 4.89999 35.7006H8.3999C8.78665 35.7006 9.10001 35.3872 9.10001 35.0005V28.7008C9.10001 27.5412 8.15959 26.6011 7 26.6011ZM6.29989 28.001H7C7.38674 28.001 7.70011 28.3143 7.70011 28.7008V31.5006H5.6001V28.7008C5.6001 28.3143 5.91347 28.001 6.29989 28.001ZM5.6001 34.3007V32.9005H7.70011V34.3007H5.6001Z" fill="#ECAE11"/>
<path d="M7 16.1016H6.29989C5.1403 16.1016 4.2002 17.0417 4.2002 18.2013V24.501C4.2002 24.8877 4.51356 25.2011 4.89999 25.2011H8.3999C8.78665 25.2011 9.10001 24.8877 9.10001 24.501V18.2013C9.10001 17.0417 8.15959 16.1016 7 16.1016ZM6.29989 17.5015H7C7.38674 17.5015 7.70011 17.8148 7.70011 18.2013V21.0011H5.6001V18.2013C5.6001 17.8148 5.91347 17.5015 6.29989 17.5015ZM5.6001 23.8012V22.401H7.70011V23.8012H5.6001Z" fill="#ECAE11"/>
<path d="M35.6982 26.6011H34.9981C33.8385 26.6011 32.8984 27.5412 32.8984 28.7008V35.0005C32.8984 35.3872 33.2118 35.7006 33.5982 35.7006H37.0981C37.4846 35.7006 37.7979 35.3872 37.7979 35.0005V28.7008C37.7979 27.5412 36.8578 26.6011 35.6982 26.6011ZM34.9981 28.001H35.6982C36.0847 28.001 36.398 28.3143 36.398 28.7008V31.5006H34.2983V28.7008C34.2983 28.3143 34.6117 28.001 34.9981 28.001ZM34.2983 34.3007V32.9005H36.398V34.3007H34.2983Z" fill="#ECAE11"/>
<path d="M35.6982 16.1016H34.9981C33.8385 16.1016 32.8984 17.0417 32.8984 18.2013V24.501C32.8984 24.8877 33.2118 25.2011 33.5982 25.2011H37.0981C37.4846 25.2011 37.7979 24.8877 37.7979 24.501V18.2013C37.7979 17.0417 36.8578 16.1016 35.6982 16.1016ZM34.9981 17.5015H35.6982C36.0847 17.5015 36.398 17.8148 36.398 18.2013V21.0011H34.2983V18.2013C34.2983 17.8148 34.6117 17.5015 34.9981 17.5015ZM34.2983 23.8012V22.401H36.398V23.8012H34.2983Z" fill="#ECAE11"/>
<path d="M25.5481 15.4014C23.8092 15.4033 22.4004 16.8125 22.3984 18.5514V23.8011C22.3984 24.1875 22.7118 24.5009 23.0982 24.5009H27.998C28.3848 24.5009 28.6982 24.1875 28.6982 23.8011V18.5514C28.6962 16.8125 27.287 15.4033 25.5481 15.4014ZM25.5481 16.8013C26.5145 16.8013 27.2979 17.5847 27.2979 18.5514V20.3012H23.7983V18.5514C23.7983 17.5847 24.5818 16.8013 25.5481 16.8013ZM23.7983 23.101V21.7011H27.2979V23.101H23.7983Z" fill="#ECAE11"/>
</svg>
