<svg width="43" height="43" viewBox="0 0 43 43" fill="none" xmlns="http://www.w3.org/2000/svg">
<path d="M39.2478 41.2819L39.2479 41.282C39.3739 41.3966 39.396 41.5454 39.3442 41.6664L39.3442 41.6666C39.2875 41.7993 39.1265 41.9274 38.9016 41.9274H1.73642C1.51165 41.9274 1.35057 41.7993 1.29386 41.6666L0.374267 42.0594L1.29386 41.6666C1.24208 41.5454 1.26423 41.3965 1.39015 41.282L1.39021 41.2819L3.83385 39.0595C6.46035 36.6709 9.7418 35.0351 13.3269 34.3356L13.3269 34.3356L15.3745 33.936L16.1829 33.7782V32.9545V31.8378V31.2939L15.7263 30.9984C12.7133 29.0479 10.4661 25.2982 9.96857 20.9009H30.5817C30.0317 25.1597 27.7737 28.916 24.8918 30.8799L24.455 31.1776V31.7063V32.9544V33.7781L25.2634 33.9359L27.311 34.3356L27.311 34.3356C30.8961 35.0351 34.1776 36.671 36.8041 39.0596L39.2478 41.2819Z" stroke="#ECAE11" stroke-width="2"/>
<path d="M31.866 12.1273L31.89 13.1027H32.8657H39.6615C40.6422 13.1027 41.2678 13.8031 41.2678 14.4681C41.2678 15.1331 40.6421 15.8334 39.6616 15.8334H30.2631H30.2586H30.2538H30.2485H30.2428H30.2367H30.2302H30.2233H30.216H30.2083H30.2002H30.1917H30.1829H30.1736H30.164H30.154H30.1436H30.1328H30.1216H30.1101H30.0981H30.0858H30.0732H30.0601H30.0467H30.0329H30.0188H30.0042H29.9894H29.9741H29.9585H29.9425H29.9262H29.9095H29.8925H29.8751H29.8574H29.8393H29.8208H29.8021H29.7829H29.7635H29.7436H29.7235H29.703H29.6821H29.661H29.6395H29.6176H29.5955H29.573H29.5502H29.527H29.5035H29.4797H29.4556H29.4312H29.4064H29.3813H29.356H29.3302H29.3042H29.2779H29.2513H29.2243H29.1971H29.1695H29.1417H29.1135H29.0851H29.0563H29.0273H28.9979H28.9683H28.9384H28.9082H28.8777H28.8469H28.8158H28.7845H28.7528H28.7209H28.6887H28.6562H28.6235H28.5905H28.5572H28.5236H28.4898H28.4557H28.4213H28.3867H28.3518H28.3166H28.2812H28.2456H28.2096H28.1734H28.137H28.1003H28.0634H28.0262H27.9888H27.9511H27.9132H27.875H27.8366H27.798H27.7591H27.72H27.6806H27.6411H27.6013H27.5612H27.521H27.4805H27.4397H27.3988H27.3576H27.3163H27.2747H27.2329H27.1908H27.1486H27.1061H27.0635H27.0206H26.9775H26.9342H26.8908H26.8471H26.8032H26.7591H26.7148H26.6703H26.6256H26.5808H26.5357H26.4905H26.445H26.3994H26.3536H26.3076H26.2614H26.2151H26.1686H26.1219H26.075H26.0279H25.9807H25.9333H25.8857H25.838H25.7901H25.742H25.6938H25.6454H25.5969H25.5482H25.4993H25.4503H25.4012H25.3519H25.3024H25.2528H25.203H25.1531H25.1031H25.0529H25.0026H24.9521H24.9015H24.8507H24.7999H24.7489H24.6977H24.6465H24.5951H24.5436H24.4919H24.4402H24.3883H24.3363H24.2842H24.2319H24.1796H24.1271H24.0745H24.0218H23.969H23.9162H23.8631H23.81H23.7568H23.7035H23.6501H23.5966H23.543H23.4893H23.4355H23.3816H23.3277H23.2736H23.2195H23.1653H23.1109H23.0566H23.0021H22.9475H22.8929H22.8382H22.7835H22.7286H22.6737H22.6187H22.5637H22.5086H22.4534H22.3982H22.3429H22.2875H22.2321H22.1766H22.1211H22.0655H22.0099H21.9542H21.8985H21.8427H21.7869H21.7311H21.6752H21.6192H21.5632H21.5072H21.4512H21.3951H21.339H21.2828H21.2267H21.1705H21.1142H21.058H21.0017H20.9454H20.8891H20.8328H20.7765H20.7201H20.6637H20.6073H20.551H20.4946H20.4382H20.3817H20.3253H20.2689H20.2125H20.1561H20.0997H20.0433H19.9869H19.9305H19.8741H19.8177H19.7614H19.705H19.6487H19.5924H19.5361H19.4799H19.4236H19.3674H19.3112H19.255H19.1989H19.1428H19.0867H19.0306H18.9746H18.9187H18.8627H18.8068H18.751H18.6952H18.6394H18.5837H18.528H18.4724H18.4168H18.3613H18.3058H18.2504H18.1951H18.1398H18.0845H18.0294H17.9743H17.9192H17.8643H17.8094H17.7545H17.6998H17.6451H17.5904H17.5359H17.4814H17.4271H17.3728H17.3185H17.2644H17.2104H17.1564H17.1025H17.0488H16.9951H16.9415H16.888H16.8346H16.7813H16.7281H16.675H16.622H16.5691H16.5163H16.4636H16.4111H16.3586H16.3063H16.254H16.2019H16.1499H16.0981H16.0463H15.9947H15.9432H15.8918H15.8405H15.7894H15.7384H15.6876H15.6368H15.5862H15.5358H15.4855H15.4353H15.3853H15.3354H15.2856H15.236H15.1866H15.1373H15.0881H15.0391H14.9903H14.9416H14.8931H14.8447H14.7965H14.7484H14.7006H14.6528H14.6053H14.5579H14.5107H14.4637H14.4168H14.3701H14.3236H14.2772H14.2311H14.1851H14.1393H14.0937H14.0483H14.0031H13.958H13.9132H13.8685H13.824H13.7798H13.7357H13.6918H13.6482H13.6047H13.5614H13.5184H13.4755H13.4329H13.3904H13.3482H13.3062H13.2644H13.2228H13.1815H13.1403H13.0994H13.0587H13.0182H12.978H12.938H12.8982H12.8586H12.8193H12.7802H12.7413H12.7027H12.6643H12.6262H12.5883H12.5506H12.5132H12.4761H12.4392H12.4025H12.3661H12.3299H12.294H12.2584H12.223H12.1878H12.153H12.1184H12.084H12.0499H12.0161H11.9826H11.9493H11.9163H11.8836H11.8511H11.819H11.7871H11.7555H11.7241H11.6931H11.6623H11.6318H11.6017H11.5718H11.5421H11.5128H11.4838H11.4551H11.4267H11.3985H11.3707H11.3432H11.316H11.289H11.2624H11.2361H11.2101H11.1845H11.1591H11.1341H11.1093H11.0849H11.0608H11.0371H11.0136H10.9905H10.9677H10.9452H10.9231H10.9013H10.8798H10.8587H10.8378H10.8174H10.7973H10.7775H10.758H10.7389H10.7202H10.7017H10.6837H10.666H10.6486H10.6316H10.615H10.5987H10.5827H10.5672H10.5519H10.5371H10.5226H10.5085H10.4947H10.4813H10.4683H10.4557H10.4434H10.4315H10.42H10.4089H10.3981H10.3877H10.3778H10.3681H10.3589H10.3501H10.3417H10.3336H10.326H10.3187H10.3118H10.3054H10.2993H10.2936H10.2884H10.2835H10.2791C9.29858 15.8334 8.67285 15.1331 8.67285 14.4681V12.3618C8.67285 6.69836 13.7833 1.92773 20.2711 1.92773C26.6683 1.92773 31.7292 6.56876 31.866 12.1273Z" stroke="#ECAE11" stroke-width="2"/>
</svg>
