<svg width="19" height="20" viewBox="0 0 19 20" fill="none" xmlns="http://www.w3.org/2000/svg">
<path d="M15.7918 11.42C15.3823 10.9936 14.8884 10.7657 14.365 10.7657C13.8458 10.7657 13.3477 10.9894 12.9214 11.4157L11.5875 12.7454C11.4778 12.6863 11.368 12.6314 11.2625 12.5765C11.1105 12.5006 10.967 12.4288 10.8446 12.3528C9.59513 11.5593 8.45964 10.5251 7.37059 9.18697C6.84295 8.52003 6.48837 7.95862 6.23088 7.38876C6.57701 7.07218 6.89782 6.74293 7.21019 6.42634C7.32838 6.30815 7.44657 6.18574 7.56476 6.06755C8.4512 5.18111 8.4512 4.03296 7.56476 3.14652L6.41239 1.99415C6.28153 1.86329 6.14646 1.72822 6.01982 1.59314C5.76656 1.33143 5.50062 1.06128 5.22625 0.808008C4.8168 0.402778 4.32715 0.1875 3.81217 0.1875C3.29719 0.1875 2.7991 0.402778 2.37698 0.808008L2.36854 0.81645L0.933356 2.2643C0.39305 2.80461 0.0849075 3.4631 0.0173694 4.22713C-0.0839379 5.4597 0.27908 6.60785 0.557675 7.35922C1.2415 9.20386 2.26301 10.9134 3.78684 12.7454C5.6357 14.953 7.86024 16.6964 10.4014 17.9247C11.3722 18.3848 12.6681 18.9294 14.116 19.0222C14.2046 19.0264 14.2975 19.0307 14.3819 19.0307C15.357 19.0307 16.1759 18.6803 16.8175 17.9838C16.8217 17.9754 16.8302 17.9712 16.8344 17.9627C17.0539 17.6968 17.3071 17.4562 17.5731 17.1987C17.7546 17.0256 17.9403 16.8441 18.1218 16.6542C18.5397 16.2194 18.7592 15.7129 18.7592 15.1937C18.7592 14.6702 18.5355 14.1679 18.1092 13.7458L15.7918 11.42Z" fill="white"/>
</svg>
