<svg width="18" height="30" viewBox="0 0 18 30" fill="none" xmlns="http://www.w3.org/2000/svg">
<path d="M16.4982 0.00673022L12.6079 0.000488281C8.23734 0.000488281 5.41287 2.89831 5.41287 7.38345V10.7875H1.50136C1.16336 10.7875 0.889648 11.0615 0.889648 11.3995V16.3316C0.889648 16.6696 1.16367 16.9433 1.50136 16.9433H5.41287V29.3885C5.41287 29.7265 5.68658 30.0002 6.02458 30.0002H11.128C11.466 30.0002 11.7397 29.7262 11.7397 29.3885V16.9433H16.3132C16.6512 16.9433 16.9249 16.6696 16.9249 16.3316L16.9267 11.3995C16.9267 11.2372 16.8621 11.0818 16.7476 10.9669C16.6331 10.8521 16.477 10.7875 16.3147 10.7875H11.7397V7.90184C11.7397 6.51489 12.0702 5.8108 13.8769 5.8108L16.4976 5.80986C16.8353 5.80986 17.109 5.53584 17.109 5.19815V0.61844C17.109 0.281063 16.8356 0.00735441 16.4982 0.00673022Z" fill="#ECAE11"/>
</svg>
