<svg width="30" height="32" viewBox="0 0 30 32" fill="none" xmlns="http://www.w3.org/2000/svg">
<path d="M21.7208 0H8.2787C3.71383 0 0 3.93043 0 8.76131V22.9867C0 27.8178 3.71383 31.748 8.2787 31.748H21.7208C26.286 31.748 29.9999 27.8176 29.9999 22.9867V8.76131C30.0001 3.93043 26.286 0 21.7208 0ZM27.3383 22.9867C27.3383 26.2646 24.8184 28.9312 21.721 28.9312H8.2787C5.18151 28.9314 2.66173 26.2646 2.66173 22.9867V8.76131C2.66173 5.48364 5.18151 2.81684 8.2787 2.81684H21.7208C24.8182 2.81684 27.3381 5.48364 27.3381 8.76131V22.9867H27.3383Z" fill="#ECAE11"/>
<path d="M14.9998 7.69434C10.7372 7.69434 7.26953 11.3644 7.26953 15.8757C7.26953 20.3867 10.7372 24.0566 14.9998 24.0566C19.2623 24.0566 22.73 20.3867 22.73 15.8757C22.73 11.3644 19.2623 7.69434 14.9998 7.69434ZM14.9998 21.2394C12.2051 21.2394 9.93127 18.8332 9.93127 15.8755C9.93127 12.9176 12.2049 10.5112 14.9998 10.5112C17.7946 10.5112 20.0682 12.9176 20.0682 15.8755C20.0682 18.8332 17.7944 21.2394 14.9998 21.2394Z" fill="#ECAE11"/>
<path d="M23.0544 5.30469C22.5416 5.30469 22.0379 5.52443 21.6757 5.90944C21.3117 6.29257 21.1025 6.82595 21.1025 7.37061C21.1025 7.91357 21.3119 8.44676 21.6757 8.83177C22.0377 9.21491 22.5416 9.43652 23.0544 9.43652C23.569 9.43652 24.0712 9.21491 24.435 8.83177C24.7987 8.44676 25.0063 7.91338 25.0063 7.37061C25.0063 6.82595 24.7987 6.29257 24.435 5.90944C24.073 5.52443 23.569 5.30469 23.0544 5.30469Z" fill="#ECAE11"/>
</svg>
