<svg width="30" height="19" viewBox="0 0 30 19" fill="none" xmlns="http://www.w3.org/2000/svg">
<path d="M29.8409 16.6901C29.8046 16.6073 29.7707 16.5385 29.7393 16.4835C29.2188 15.4913 28.2241 14.2735 26.7559 12.8298L26.7249 12.7967L26.7093 12.7805L26.6936 12.7639H26.6779C26.0115 12.0916 25.5895 11.6396 25.4128 11.4081C25.0895 10.9673 25.0171 10.521 25.1938 10.0689C25.3186 9.72724 25.7876 9.00578 26.5996 7.90351C27.0267 7.31934 27.3649 6.85115 27.6147 6.49842C29.4164 3.96349 30.1974 2.34364 29.9578 1.63822L29.8648 1.47338C29.8022 1.37414 29.6408 1.28335 29.3808 1.20055C29.1202 1.11792 28.787 1.10426 28.3808 1.15932L23.8825 1.19221C23.8096 1.16488 23.7055 1.16743 23.57 1.20055C23.4346 1.23367 23.3668 1.25029 23.3668 1.25029L23.2885 1.29168L23.2264 1.34142C23.1743 1.37431 23.117 1.43215 23.0545 1.51484C22.9923 1.59723 22.9403 1.69393 22.8987 1.80411C22.4089 3.13764 21.8521 4.37749 21.2272 5.52359C20.8419 6.207 20.488 6.79927 20.1648 7.30076C19.8421 7.80207 19.5714 8.17142 19.3529 8.40818C19.134 8.64517 18.9365 8.83503 18.7592 8.97845C18.5821 9.12193 18.4469 9.18256 18.3533 9.16038C18.2595 9.1382 18.1711 9.1162 18.0875 9.0942C17.9418 8.99496 17.8246 8.85999 17.7362 8.68918C17.6475 8.51837 17.5877 8.30338 17.5565 8.04439C17.5254 7.78522 17.507 7.5623 17.5018 7.37487C17.4969 7.18768 17.4992 6.92289 17.5097 6.58128C17.5206 6.23948 17.5254 6.00822 17.5254 5.88698C17.5254 5.46812 17.5331 5.01353 17.5486 4.52311C17.5644 4.03268 17.5771 3.64411 17.5878 3.35784C17.5984 3.07129 17.6033 2.76811 17.6033 2.4485C17.6033 2.12888 17.585 1.87823 17.5486 1.6963C17.5127 1.5146 17.4576 1.33824 17.385 1.16725C17.312 0.996445 17.2051 0.864314 17.0648 0.770513C16.9243 0.676829 16.7496 0.602483 16.5416 0.547245C15.9896 0.415056 15.2868 0.343547 14.4327 0.33243C12.496 0.310428 11.2515 0.44279 10.6996 0.729345C10.481 0.850417 10.2831 1.01584 10.1062 1.2251C9.91868 1.46765 9.89253 1.60001 10.0279 1.62178C10.6528 1.72085 11.0951 1.95784 11.3555 2.33252L11.4493 2.53107C11.5223 2.67431 11.5952 2.92792 11.6681 3.29154C11.7409 3.65517 11.7879 4.05741 11.8086 4.49804C11.8606 5.30269 11.8606 5.99149 11.8086 6.56448C11.7565 7.13771 11.7072 7.58396 11.6602 7.90357C11.6132 8.22319 11.543 8.48218 11.4493 8.68049C11.3555 8.87886 11.2931 9.00011 11.2618 9.04412C11.2305 9.08812 11.2045 9.11586 11.1838 9.12674C11.0485 9.18163 10.9077 9.2096 10.762 9.2096C10.6161 9.2096 10.4392 9.13236 10.231 8.97799C10.0228 8.82363 9.80675 8.61159 9.58282 8.34154C9.3589 8.07143 9.10637 7.69397 8.82511 7.2091C8.54407 6.72423 8.25247 6.15118 7.95048 5.48995L7.70063 5.01041C7.54444 4.70191 7.33107 4.25271 7.06032 3.66321C6.7894 3.07349 6.54994 2.50304 6.34177 1.95199C6.25856 1.72056 6.13355 1.54437 5.96696 1.42312L5.88879 1.37338C5.83681 1.32938 5.75338 1.28265 5.63893 1.23286C5.52432 1.18312 5.40472 1.14745 5.27966 1.12551L0.999856 1.1584C0.562514 1.1584 0.265775 1.26325 0.109527 1.47268L0.0469947 1.57175C0.0157561 1.62693 0 1.71506 0 1.83636C0 1.95761 0.0312386 2.10642 0.0937707 2.28261C0.718544 3.83669 1.39797 5.33547 2.13205 6.77918C2.86613 8.2229 3.50404 9.38585 4.04538 10.267C4.58683 11.1488 5.13873 11.981 5.70108 12.7632C6.26343 13.5458 6.63567 14.0473 6.81779 14.2676C7.00014 14.4883 7.14337 14.6533 7.24748 14.7635L7.63804 15.1602C7.88795 15.4247 8.25494 15.7416 8.73916 16.1107C9.2235 16.4801 9.7597 16.8437 10.348 17.2021C10.9365 17.56 11.6211 17.8521 12.4021 18.078C13.1831 18.3041 13.9432 18.3948 14.6826 18.351H16.4789C16.8432 18.3177 17.1192 18.1965 17.3068 17.9872L17.369 17.9044C17.4108 17.8386 17.4499 17.7364 17.486 17.5989C17.5225 17.4611 17.5407 17.3094 17.5407 17.1443C17.53 16.6705 17.5641 16.2435 17.642 15.8633C17.7199 15.4832 17.8086 15.1967 17.9078 15.0037C18.007 14.8109 18.119 14.6482 18.2435 14.5163C18.3684 14.3841 18.4573 14.304 18.5095 14.2764C18.5614 14.2487 18.6028 14.2299 18.634 14.2186C18.884 14.1305 19.1781 14.2158 19.5168 14.475C19.8553 14.734 20.1728 15.0538 20.4697 15.4339C20.7665 15.8143 21.1231 16.2411 21.5396 16.7149C21.9563 17.1889 22.3206 17.5412 22.6329 17.773L22.9452 17.9714C23.1537 18.1037 23.4245 18.225 23.7578 18.3352C24.0905 18.4453 24.382 18.4729 24.6322 18.4178L28.6307 18.3518C29.0262 18.3518 29.334 18.2825 29.5523 18.145C29.771 18.0072 29.9009 17.8554 29.9428 17.6904C29.9846 17.5251 29.9869 17.3376 29.9508 17.128C29.9137 16.9189 29.8772 16.7727 29.8409 16.6901Z" fill="#ECAE11"/>
</svg>
